<?xml version="1.0" encoding="UTF-8" standalone="no"?>
<!-- Created with Inkscape (http://www.inkscape.org/) -->

<svg
   xmlns:dc="http://purl.org/dc/elements/1.1/"
   xmlns:cc="http://creativecommons.org/ns#"
   xmlns:rdf="http://www.w3.org/1999/02/22-rdf-syntax-ns#"
   xmlns:svg="http://www.w3.org/2000/svg"
   xmlns="http://www.w3.org/2000/svg"
   xmlns:xlink="http://www.w3.org/1999/xlink"
   xmlns:sodipodi="http://sodipodi.sourceforge.net/DTD/sodipodi-0.dtd"
   xmlns:inkscape="http://www.inkscape.org/namespaces/inkscape"
   width="16"
   height="16"
   id="svg3163"
   sodipodi:version="0.32"
   inkscape:version="0.47 r22583"
   version="1.0"
   sodipodi:docname="MscriptGen.svg"
   inkscape:output_extension="org.inkscape.output.svg.inkscape"
   inkscape:export-filename="/home/andreas/Projects/yakindu/workspaces/damos/org.eclipselabs.mscript.ide.ui/icons/Mscript2.png"
   inkscape:export-xdpi="90"
   inkscape:export-ydpi="90">
  <sodipodi:namedview
     id="base"
     pagecolor="#ffffff"
     bordercolor="#666666"
     borderopacity="1.0"
     gridtolerance="10000"
     guidetolerance="10"
     objecttolerance="10"
     inkscape:pageopacity="0.0"
     inkscape:pageshadow="2"
     inkscape:zoom="28.328125"
     inkscape:cx="2.1916301"
     inkscape:cy="9.2383119"
     inkscape:document-units="px"
     inkscape:current-layer="layer1"
     showgrid="true"
     inkscape:window-width="1918"
     inkscape:window-height="1120"
     inkscape:window-x="0"
     inkscape:window-y="24"
     inkscape:snap-global="true"
     inkscape:window-maximized="0">
    <inkscape:grid
       type="xygrid"
       id="grid3173"
       visible="true"
       enabled="true"
       dotted="false"
       spacingx="1px"
       originx="-0.5px"
       originy="-0.5px" />
  </sodipodi:namedview>
  <defs
     id="defs3165">
    <linearGradient
       id="linearGradient5102">
      <stop
         id="stop5110"
         offset="0"
         style="stop-color:#f57900;stop-opacity:0.49803922;" />
      <stop
         style="stop-color:#f57900;stop-opacity:0.43529412;"
         offset="0.125"
         id="stop5116" />
      <stop
         style="stop-color:#f57900;stop-opacity:0.37254902;"
         offset="0.25"
         id="stop5114" />
      <stop
         style="stop-color:#f57900;stop-opacity:0.24705882;"
         offset="0.5"
         id="stop5112" />
      <stop
         style="stop-color:#f57900;stop-opacity:0;"
         offset="1"
         id="stop5106" />
    </linearGradient>
    <linearGradient
       id="linearGradient5092">
      <stop
         style="stop-color:#729fcf;stop-opacity:1;"
         offset="0"
         id="stop5094" />
      <stop
         style="stop-color:#729fcf;stop-opacity:0;"
         offset="1"
         id="stop5096" />
    </linearGradient>
    <linearGradient
       id="linearGradient3640">
      <stop
         style="stop-color:#729fcf;stop-opacity:1;"
         offset="0"
         id="stop3642" />
      <stop
         style="stop-color:#729fcf;stop-opacity:0;"
         offset="1"
         id="stop3644" />
    </linearGradient>
    <linearGradient
       id="linearGradient3634">
      <stop
         id="stop3636"
         offset="0"
         style="stop-color:#729fcf;stop-opacity:1;" />
      <stop
         id="stop3638"
         offset="1"
         style="stop-color:#729fcf;stop-opacity:0;" />
    </linearGradient>
    <linearGradient
       id="linearGradient3626">
      <stop
         style="stop-color:#729fcf;stop-opacity:1;"
         offset="0"
         id="stop3628" />
      <stop
         style="stop-color:#729fcf;stop-opacity:0;"
         offset="1"
         id="stop3630" />
    </linearGradient>
    <linearGradient
       id="linearGradient4889">
      <stop
         style="stop-color:#d5ffd3;stop-opacity:1;"
         offset="0"
         id="stop4891" />
      <stop
         style="stop-color:#d5ffd3;stop-opacity:0;"
         offset="1"
         id="stop4893" />
    </linearGradient>
    <linearGradient
       id="linearGradient4883">
      <stop
         id="stop4885"
         offset="0"
         style="stop-color:#d5ffd3;stop-opacity:1;" />
      <stop
         id="stop4887"
         offset="1"
         style="stop-color:#d5ffd3;stop-opacity:0;" />
    </linearGradient>
    <linearGradient
       id="linearGradient4875">
      <stop
         style="stop-color:#d5ffd3;stop-opacity:1;"
         offset="0"
         id="stop4877" />
      <stop
         style="stop-color:#d5ffd3;stop-opacity:0;"
         offset="1"
         id="stop4879" />
    </linearGradient>
    <inkscape:perspective
       sodipodi:type="inkscape:persp3d"
       inkscape:vp_x="0 : 526.18109 : 1"
       inkscape:vp_y="0 : 1000 : 0"
       inkscape:vp_z="744.09448 : 526.18109 : 1"
       inkscape:persp3d-origin="372.04724 : 350.78739 : 1"
       id="perspective3171" />
    <inkscape:perspective
       id="perspective3697"
       inkscape:persp3d-origin="372.04724 : 350.78739 : 1"
       inkscape:vp_z="744.09448 : 526.18109 : 1"
       inkscape:vp_y="0 : 1000 : 0"
       inkscape:vp_x="0 : 526.18109 : 1"
       sodipodi:type="inkscape:persp3d" />
    <pattern
       patternUnits="userSpaceOnUse"
       width="8.6623106"
       height="6.9721041"
       patternTransform="translate(34.43797,86.65526)"
       id="pattern1929">
      <rect
         y="0"
         x="0"
         height="6.9721041"
         width="8.6623106"
         id="rect1927"
         style="fill:#4bffff;fill-opacity:1;stroke:none;stroke-width:3;stroke-linecap:round;stroke-linejoin:round;stroke-miterlimit:4;stroke-dasharray:none;stroke-opacity:1" />
    </pattern>
    <pattern
       xlink:href="#pattern1929"
       id="pattern1968"
       patternTransform="translate(34.43797,86.65526)" />
    <pattern
       xlink:href="#pattern1929"
       id="pattern1976"
       patternTransform="translate(86.65527,-50.07244)" />
    <pattern
       xlink:href="#pattern1929"
       id="pattern1980"
       patternTransform="translate(-50.07238,-102.2896)" />
    <inkscape:perspective
       id="perspective3084"
       inkscape:persp3d-origin="128.1875 : 87.25 : 1"
       inkscape:vp_z="256.375 : 130.875 : 1"
       inkscape:vp_y="0 : 1000 : 0"
       inkscape:vp_x="0 : 130.875 : 1"
       sodipodi:type="inkscape:persp3d" />
  </defs>
  <metadata
     id="metadata3168">
    <rdf:RDF>
      <cc:Work
         rdf:about="">
        <dc:format>image/svg+xml</dc:format>
        <dc:type
           rdf:resource="http://purl.org/dc/dcmitype/StillImage" />
        <dc:title></dc:title>
      </cc:Work>
    </rdf:RDF>
  </metadata>
  <g
     inkscape:label="Layer 1"
     inkscape:groupmode="layer"
     id="layer1">
    <text
       xml:space="preserve"
       style="font-size:3.69344449px;font-style:normal;font-variant:normal;font-weight:bold;font-stretch:normal;fill:#000000;fill-opacity:1;stroke:none;font-family:Century Schoolbook L;-inkscape-font-specification:Century Schoolbook L Medium"
       x="2.603878"
       y="12"
       id="text5184"
       inkscape:export-filename="/home/andreas/Projects/yakindu/workspaces/damos/org.eclipselabs.mscript.codegen.c.ide.ui/icons/MscriptGen.png"
       inkscape:export-xdpi="90"
       inkscape:export-ydpi="90"><tspan
         sodipodi:role="line"
         id="tspan5186"
         x="2.603878"
         y="12"
         style="font-size:11.08033276px">M</tspan></text>
    <path
       d="m 7.8225682,-8.527e-4 -0.06241,0.00955 -0.06241,0 -0.06241,0 -0.06241,0 -0.06241,0.011458 -0.06241,0 -0.06241,0.00955 -0.06241,0 -0.06241,0.011458 -0.074109,0.00955 -0.06241,0 -0.06241,0.00955 -0.06241,0.011458 -0.072162,0.00955 0.1248125,0.8576034 -0.074109,0.00955 -0.06241,0.00955 -0.06241,0.00955 -0.06241,0.011458 -0.052657,0.00955 -0.06241,0.00955 -0.060453,0.011458 -0.052657,0.00955 -0.06241,0.00955 -0.052657,0.021011 -0.06241,0.00955 -0.052657,0.00955 -0.06241,0.011458 -0.052657,0.00955 -0.05071,0.021011 -0.062409,0.00955 -0.052657,0.021011 -0.052657,0.00955 -0.062409,0.021011 -0.052657,0.00955 -0.050701,0.021011 -0.064356,0.00955 -0.050701,0.021011 -0.05071,0.02101 -0.064356,0.019104 -0.05071,0.021011 -0.064356,0.021011 -0.05071,0.021011 -0.06241,0.019104 -0.06241,0.030562 -0.06241,0.021011 -0.052657,0.030562 -0.354937,-0.8060322 -0.06241,0.030562 -0.06241,0.030562 -0.06241,0.019104 -0.06241,0.032469 -0.062409,0.030562 -0.06241,0.030562 -0.06241,0.030562 -0.06241,0.030562 -0.06241,0.030562 -0.06241,0.030562 -0.052657,0.030562 -0.06241,0.040113 -0.06241,0.030562 -0.06241,0.030562 -0.052657,0.030562 -0.062409,0.04202 -0.06241,0.030562 -0.05071,0.040113 -0.06241,0.030562 -0.06241,0.040113 -0.052657,0.04202 -0.06241,0.030562 -0.06241,0.040113 -0.052657,0.04202 -0.06241,0.040113 -0.052657,0.040113 -0.06241,0.040114 -0.052657,0.04202 -0.06241,0.051572 -0.06241,0.040113 -0.050701,0.051572 -0.06241,0.040113 0.551908,0.6627795 -0.042904,0.03056 -0.040958,0.03056 -0.031205,0.03056 -0.042904,0.04012 -0.040957,0.03247 -0.040957,0.02866 -0.042904,0.04202 -0.031205,0.03056 -0.040957,0.04012 -0.040957,0.03056 -0.042904,0.04202 -0.040957,0.03056 -0.031205,0.04012 -0.040957,0.04012 -0.042904,0.04202 -0.040957,0.03056 -0.042904,0.04012 -0.029249,0.04012 -0.042904,0.04202 -0.040957,0.04966 -0.042904,0.04202 -0.040957,0.04012 -0.040957,0.05158 -0.031205,0.04012 -0.042904,0.05158 -0.040957,0.04012 -0.040957,0.05157 -0.042904,0.04967 -0.040957,0.05157 -0.031205,0.05158 -0.042904,0.05157 -0.040957,0.05157 -0.6981736,-0.500427 -0.031205,0.05158 -0.031205,0.04012 -0.040957,0.05158 -0.031205,0.04967 -0.031205,0.04012 -0.033152,0.05158 -0.029258,0.05157 -0.042904,0.05158 -0.031205,0.04966 -0.031205,0.05158 -0.031205,0.05158 -0.031205,0.04967 -0.031205,0.05158 -0.031205,0.04966 -0.031205,0.06304 -0.0312048,0.04966 -0.0312048,0.06303 -0.0312048,0.04967 -0.0312048,0.06113 -0.0312048,0.05158 -0.0312048,0.06113 -0.0312048,0.06113 -0.0312048,0.06113 -0.0214521,0.06113 -0.0312048,0.06113 -0.0312048,0.06113 -0.0312048,0.06113 -0.0312048,0.06113 -0.0214521,0.07259 -0.0292486,0.06113 -0.0312048,0.07067 -0.0331515,0.07066 0.801534,0.305605 -0.019505,0.05158 -0.021452,0.05157 -0.021452,0.05158 -0.019505,0.04967 -0.021452,0.05157 -0.00975,0.05158 -0.021452,0.04967 -0.019505,0.05157 -0.021452,0.05157 -0.011699,0.06113 -0.019505,0.04967 -0.011699,0.05157 -0.019505,0.06113 -0.00975,0.05157 -0.021452,0.05158 -0.011699,0.05921 -0.00975,0.05157 -0.00975,0.06303 -0.0214521,0.04966 -0.009753,0.06113 -0.009753,0.06113 -0.0116994,0.06113 -0.009753,0.06113 -0.0214521,0.06113 -0.009753,0.06113 -0.0116994,0.06113 -0.009753,0.06113 -0.009753,0.06113 -0.0116994,0.06113 -0.009753,0.07259 -0.009753,0.06113 0,0.07067 -0.82298707,-0.09168 -0.011699,0.06113 0,0.06113 -0.00975,0.06113 0,0.06113 0,0.05158 L 0,7.433601 l 0,0.06113 0,0.04966 0,0.06304 0,0.04967 0,0.06113 0,0.05158 0,0.06113 0,0.05158 0,0.05921 0,0.002 0,0.04967 0,0.01146 0,0.04967 0,0.002 0,0.05921 0,0.05158 0,0.06113 0,0.05158 0,0.06113 0,0.04967 0,0.06303 0,0.04967 0,0.06113 0.00975,0.06113 0,0.05157 0,0.06113 0.00975,0.06113 0,0.06113 0.011699,0.06113 0.82298707,-0.09168 0,0.07068 0.009753,0.06113 0.009753,0.07259 0.0116994,0.06113 0.009753,0.06113 0.009753,0.06113 0.0116994,0.06113 0.009753,0.06113 0.0214521,0.06113 0.009753,0.06113 0.0116994,0.06113 0.009753,0.06113 0.009753,0.06113 0.0214521,0.04967 0.00975,0.06303 0.00975,0.05157 0.011699,0.05921 0.021452,0.05157 0.00975,0.05158 0.019505,0.06113 0.011699,0.05158 0.019505,0.04966 0.011699,0.06113 0.021452,0.05157 0.019505,0.05158 0.021452,0.04966 0.00975,0.05158 0.021452,0.05157 0.019505,0.04966 0.021452,0.05158 0.021452,0.05157 0.019505,0.05158 -0.80153405,0.305605 0.0331515,0.07066 0.0312048,0.07067 0.0292486,0.06113 0.0214521,0.07259 0.0312048,0.06113 0.0312048,0.06113 0.0312048,0.06113 0.0312048,0.06113 0.0214521,0.06113 0.0312048,0.06113 0.0312048,0.06113 0.0312048,0.06113 0.0312048,0.05158 0.0312048,0.06113 0.0312048,0.04966 0.0312048,0.06303 0.0312049,0.04966 0.031205,0.06303 0.031205,0.04967 0.031205,0.05157 0.031205,0.04966 0.031205,0.05157 0.031205,0.05157 0.031205,0.04967 0.042904,0.05157 0.029258,0.05158 0.033152,0.05157 0.031205,0.04012 0.031205,0.04966 0.040957,0.05157 0.031205,0.04012 0.031205,0.05158 0.6981737,-0.500426 0.040957,0.05157 0.042904,0.05158 0.031205,0.05157 0.040957,0.05157 0.042904,0.04967 0.040957,0.05157 0.040957,0.04012 0.042904,0.05157 0.031205,0.04012 0.040957,0.05158 0.040957,0.04012 0.042904,0.04202 0.040957,0.04966 0.042904,0.04202 0.029249,0.04012 0.042904,0.04012 0.040957,0.03056 0.042904,0.04202 0.040957,0.04012 0.031205,0.04012 0.040957,0.03056 0.042904,0.04202 0.040957,0.03056 0.040957,0.04012 0.031205,0.03056 0.042904,0.04202 0.040957,0.02865 0.040957,0.03247 0.042904,0.04012 0.031205,0.03056 0.040958,0.03056 0.042904,0.03056 -0.551908,0.662779 0.06241,0.04012 0.050701,0.05157 0.06241,0.04012 0.06241,0.05158 0.052657,0.04202 0.06241,0.04012 0.052657,0.04012 0.06241,0.04012 0.052657,0.04202 0.06241,0.04012 0.06241,0.03056 0.052657,0.04202 0.06241,0.04012 0.06241,0.03056 0.05071,0.04012 0.06241,0.03056 0.062409,0.04202 0.052657,0.03056 0.06241,0.03056 0.06241,0.03056 0.06241,0.04012 0.052657,0.03056 0.06241,0.03056 0.06241,0.03056 0.06241,0.03056 0.06241,0.03056 0.06241,0.03056 0.062409,0.03056 0.06241,0.03247 0.06241,0.0191 0.06241,0.03056 0.06241,0.03056 0.354937,-0.806033 0.052657,0.03056 0.06241,0.02101 0.06241,0.03056 0.06241,0.0191 0.05071,0.02101 0.064356,0.02101 0.05071,0.02101 0.064356,0.0191 0.05071,0.02101 0.050701,0.02101 0.064356,0.0096 0.050701,0.02101 0.052657,0.0096 0.062409,0.02101 0.052657,0.0096 0.052657,0.02101 0.062409,0.0096 0.05071,0.02101 0.052657,0.0096 0.06241,0.01146 0.052657,0.0096 0.06241,0.0096 0.052657,0.02101 0.06241,0.0096 0.052657,0.0096 0.060453,0.01146 0.06241,0.0096 0.052657,0.0096 0.06241,0.01146 0.06241,0.0096 0.06241,0.0096 0.074109,0.0096 -0.1248125,0.857604 0.072162,0.0096 0.06241,0.01146 0.06241,0.0096 0.06241,0 0.074109,0.0096 0.06241,0.01146 0.06241,0 0.06241,0.0096 0.06241,0 0.06241,0.01146 0.06241,0 0.06241,0 0.06241,0 0.06241,0.0096 0.06241,0 0.052657,0 0.06241,0 0.06241,0 0.06241,0 0.06241,0 0.06241,0 0.06241,0 0.052657,-0.0096 0.060453,0 0.064356,0 0.06241,-0.01146 0.06241,0 0.06241,-0.0096 0.06241,0 0.06241,-0.01146 0.06241,-0.0096 0.06241,0 -0.093614,-0.888164 0.06241,-0.0096 0.074109,-0.0096 0.06241,-0.0096 0.06241,0 0.072162,-0.01146 0.06241,-0.0191 0.072153,-0.01146 0.06241,-0.0096 0.074109,-0.0096 0.06241,-0.0096 0.06241,-0.02101 0.072153,-0.0096 0.062409,-0.02101 0.06241,-0.01146 0.06241,-0.0191 0.074109,-0.02101 0.06241,-0.0096 0.06241,-0.02101 0.06241,-0.02101 0.06241,-0.0191 0.06241,-0.02101 0.06241,-0.02101 0.06436,-0.0191 0.06045,-0.02101 0.06241,-0.02101 0.06241,-0.03056 0.06241,-0.02101 0.05266,-0.0191 0.06241,-0.03056 0.06241,-0.02101 0.05266,-0.03056 0.06241,-0.0191 0.354938,0.815582 0.06241,-0.02101 0.06241,-0.03056 0.0507,-0.03056 0.06241,-0.02101 0.05266,-0.03056 0.06241,-0.03056 0.05266,-0.0191 0.0507,-0.03056 0.06241,-0.03247 0.05266,-0.03056 0.05266,-0.0191 0.0507,-0.03056 0.0546,-0.03056 0.0507,-0.03056 0.06241,-0.03056 0.05266,-0.03056 0.04096,-0.03056 0.05266,-0.03056 0.05071,-0.03056 0.05266,-0.03247 0.05266,-0.02866 0.05266,-0.03056 0.04096,-0.03247 0.05266,-0.03056 0.04096,-0.04012 0.05266,-0.03056 0.04096,-0.03056 0.05266,-0.03056 0.0429,-0.04012 0.0507,-0.03056 0.0429,-0.03056 0.04096,-0.04202 -0.551908,-0.712441 0.05266,-0.03056 0.04096,-0.04202 0.0507,-0.04012 0.05266,-0.03056 0.05266,-0.04012 0.0429,-0.04202 0.05071,-0.04966 0.05266,-0.04202 0.0507,-0.04012 0.04096,-0.04012 0.05266,-0.05158 0.05266,-0.04202 0.05071,-0.04967 0.0429,-0.05157 0.05266,-0.04012 0.05266,-0.05158 0.04096,-0.05157 0.05266,-0.05157 0.04096,-0.04012 0.04096,-0.05157 0.05266,-0.04966 0.0429,-0.05158 0.04096,-0.05158 0.04096,-0.04012 0.04096,-0.04967 0.0429,-0.05158 0.0312,-0.05157 0.04096,-0.04012 0.03315,-0.05158 0.04096,-0.04202 0.0312,-0.04966 0.0312,-0.04012 0.729377,0.529077 0.04096,-0.04966 0.0312,-0.05158 0.04291,-0.04202 0.02926,-0.04967 0.03315,-0.05158 0.04096,-0.04966 0.0312,-0.05157 0.0312,-0.05158 0.04096,-0.06113 0.0312,-0.05157 0.0312,-0.04966 0.0312,-0.06113 0.0312,-0.05157 0.0312,-0.05158 0.0312,-0.06113 0.0312,-0.05157 0.03315,-0.06113 0.02926,-0.04966 0.03315,-0.06113 0.0312,-0.05157 0.02926,-0.06113 0.02145,-0.05158 0.0312,-0.06113 0.02145,-0.04967 0.0312,-0.06113 0.02145,-0.05157 0.0312,-0.05158 0.01951,-0.06113 0.02145,-0.05158 0.01951,-0.04967 0.0234,-0.05158 0.01951,-0.05157 -0.842489,-0.334255 0.02926,-0.06303 0.02145,-0.06113 0.02145,-0.06113 0.02145,-0.06113 0.0195,-0.06113 0.02145,-0.07068 0.02145,-0.06113 0.01951,-0.06113 0.02145,-0.06113 0.02145,-0.06113 0.01951,-0.06113 0.0117,-0.07259 0.01951,-0.06113 0.02145,-0.06113 0.0098,-0.06113 0.02145,-0.06113 0.0098,-0.06113 0.0098,-0.06113 0.02145,-0.06113 0.0117,-0.06113 0.0098,-0.06113 0.0098,-0.06113 0.0117,-0.06113 0.0078,-0.06113 0.0117,-0.06113 0,-0.06303 0.0117,-0.04967 0.0098,-0.06113 0,-0.06113 0.0117,-0.06113 0,-0.05158 0,-0.06113 0.895144,0.08214 0.0098,-0.06113 0,-0.05157 0.0117,-0.06113 0,-0.06113 0.0098,-0.06113 0,-0.06113 0,-0.06113 0,-0.06113 0,-0.06113 0,-0.06113 0,-0.06113 0,-0.06113 0,-0.06113 -0.002,-0.01528 0.002,-0.01528 0,-0.06113 0,-0.06113 0,-0.06113 0,-0.06113 0,-0.06113 0,-0.06113 0,-0.06113 0,-0.06113 -0.0098,-0.06113 0,-0.06113 -0.0117,-0.06113 0,-0.05158 -0.0098,-0.06113 -0.895144,0.08214 0,-0.06113 0,-0.05157 -0.0117,-0.06113 0,-0.06113 -0.0098,-0.06113 -0.0117,-0.04967 0,-0.06304 -0.0117,-0.06113 -0.0078,-0.06113 -0.0117,-0.06113 -0.0098,-0.06113 -0.0098,-0.06113 -0.0117,-0.06113 -0.02145,-0.06113 -0.0098,-0.06113 -0.0098,-0.06113 -0.02145,-0.06113 -0.0098,-0.06113 -0.02145,-0.06113 -0.01951,-0.06113 -0.0117,-0.07259 -0.01951,-0.06113 -0.02145,-0.06113 -0.02145,-0.06113 -0.01951,-0.06113 -0.02145,-0.06113 -0.02145,-0.07067 -0.0195,-0.06113 -0.02145,-0.06113 -0.02145,-0.06113 -0.02145,-0.06113 -0.02926,-0.06303 0.842489,-0.334255 -0.01951,-0.05157 -0.0234,-0.05158 -0.01951,-0.04967 -0.02145,-0.05158 -0.01951,-0.06113 -0.0312,-0.05157 -0.02145,-0.05157 -0.0312,-0.06113 -0.02145,-0.04967 -0.0312,-0.06113 -0.02145,-0.05157 -0.02926,-0.06113 -0.0312,-0.05157 -0.03315,-0.06113 -0.02926,-0.04966 -0.03315,-0.06113 -0.0312,-0.05158 -0.0312,-0.06113 -0.0312,-0.05158 -0.0312,-0.05157 -0.0312,-0.06113 -0.0312,-0.04967 -0.0312,-0.05157 -0.04096,-0.06113 -0.0312,-0.05158 -0.0312,-0.05158 -0.04096,-0.04966 -0.03315,-0.05157 -0.02926,-0.04967 -0.04291,-0.04202 -0.0312,-0.05157 -0.04096,-0.04967 -0.729377,0.529078 -0.0312,-0.04012 -0.0312,-0.04967 -0.04096,-0.04202 -0.03315,-0.05157 -0.04096,-0.04012 -0.0312,-0.05158 -0.0429,-0.05157 -0.04096,-0.04966 -0.04096,-0.04012 -0.04096,-0.05157 -0.0429,-0.05157 -0.05266,-0.04967 -0.04096,-0.05157 -0.04096,-0.04012 -0.05266,-0.05157 -0.04096,-0.05158 -0.05266,-0.05157 -0.05266,-0.04012 -0.0429,-0.05158 -0.05071,-0.04967 -0.05266,-0.04202 -0.05266,-0.05158 -0.04096,-0.04012 -0.0507,-0.04012 -0.05266,-0.04202 -0.05071,-0.04966 -0.0429,-0.04202 -0.05266,-0.04012 -0.05266,-0.03056 -0.0507,-0.04012 -0.04096,-0.04202 -0.05266,-0.03056 0.551908,-0.7124421 -0.04096,-0.04202 -0.0429,-0.030562 -0.0507,-0.030562 -0.0429,-0.040114 -0.05266,-0.030562 -0.04096,-0.030562 -0.05266,-0.030562 -0.04096,-0.040113 -0.05266,-0.030562 -0.04096,-0.032469 -0.05266,-0.030562 -0.05266,-0.028646 -0.05266,-0.032469 -0.05071,-0.030562 -0.05266,-0.030562 -0.04096,-0.030562 -0.05266,-0.030562 -0.06241,-0.030562 -0.0507,-0.030562 -0.0546,-0.030562 -0.0507,-0.030562 -0.05266,-0.019104 -0.05266,-0.030562 -0.06241,-0.032469 -0.0507,-0.030562 -0.05266,-0.019104 -0.06241,-0.030562 -0.05266,-0.030562 -0.06241,-0.02101 -0.0507,-0.030562 -0.06242,-0.030562 -0.06241,-0.021011 L 10.874737,1.487542 10.812327,1.468438 10.759667,1.437876 10.697257,1.416865 10.634847,1.386303 10.582187,1.367199 10.519777,1.346188 10.457367,1.315626 10.394957,1.294615 10.334507,1.273604 10.270147,1.2545 10.207737,1.233489 10.145327,1.212478 10.082917,1.193374 10.020507,1.172363 9.9580972,1.151352 9.8956872,1.141802 9.8215782,1.120792 9.7591682,1.101688 9.6967582,1.09023 9.6343492,1.069219 9.5621962,1.059669 9.4997862,1.038658 9.4373762,1.029108 9.3632672,1.019558 9.3008572,1.010008 9.2287042,0.99855 9.1662942,0.979446 9.0941322,0.967988 l -0.06241,0 -0.06241,-0.00955 -0.074109,-0.00955 -0.06241,-0.00955 0.093614,-0.8881634 -0.06241,0 -0.06241,-0.00955 -0.06241,-0.011458 -0.06241,0 -0.06241,-0.00955 -0.06241,0 -0.06241,-0.011458 -0.064356,0 -0.060453,0 -0.052657,-0.00955 -0.06241,0 -0.06241,0 -0.06241,0 -0.06241,0 -0.06241,0 -0.06241,0 -0.052657,0 -0.06241,0 z m 0.1677177,2.1010321 0.3334849,0.00955 0.3198339,0.021011 0.3256846,0.051572 0.3217836,0.061124 0.3237341,0.082134 0.3120336,0.101231 0.3120324,0.110782 0.312033,0.133702 0.292531,0.152803 0.302282,0.173812 0.28083,0.183363 0.271078,0.213924 0.27108,0.213923 0.259376,0.244483 0.239876,0.265494 0.239876,0.275044 -0.02145,0 c 0.216241,0.273615 0.408878,0.565517 0.57336,0.874793 l 0,-0.0076 0.03315,0.07259 c 0.392461,0.761097 0.618398,1.617896 0.633817,2.525058 l -0.002,0 c 0.0014,0.0462 0.0032,0.09285 0.0039,0.139433 -6.31e-4,0.04658 -0.0025,0.09323 -0.0039,0.139431 l 0.002,0 c -0.01542,0.9071629 -0.241356,1.7639609 -0.633817,2.5250576 l -0.03315,0.07259 0,-0.0076 c -0.164482,0.309276 -0.357119,0.601176 -0.57336,0.874793 l 0.02145,0 -0.239876,0.275044 -0.239876,0.265494 -0.259376,0.244483 -0.27108,0.213915 -0.271078,0.213924 -0.28083,0.183363 -0.302282,0.173812 -0.292531,0.152802 -0.312033,0.133702 L 9.9268406,13.569997 9.614807,13.67123 9.2910729,13.75336 8.9692893,13.81449 8.6436047,13.86606 8.3237708,13.88707 7.9902859,13.89667 7.6665509,13.88707 7.333066,13.86606 7.009332,13.81449 6.6875475,13.753295 6.3638134,13.671162 6.0517797,13.569929 5.739747,13.459148 5.4257637,13.325446 5.135183,13.163094 4.8329011,12.998832 4.5520712,12.805918 4.2712423,12.601545 4.009914,12.366611 3.7505372,12.122128 3.4989607,11.858544 3.2707858,11.58159 l 0.0117,0 C 3.064743,11.303428 2.8735648,11.005997 2.7091271,10.691489 l -0.00199,0.01337 -0.025355,-0.06686 C 2.2970363,9.8829553 2.0731803,9.0353223 2.057765,8.1377803 l 0.0019,0 c -0.00142,-0.0462 -0.00323,-0.09284 -0.00389,-0.139432 6.306e-4,-0.04658 0.00247,-0.09323 0.00389,-0.139432 l -0.0019,0 c 0.015574,-0.897141 0.2394261,-1.74548 0.6240665,-2.500228 l 0.025355,-0.06686 0.00199,0.01337 c 0.1644376,-0.314508 0.3556159,-0.611939 0.57336,-0.890074 l -0.011699,0 0.2281745,-0.276953 0.2515765,-0.263584 0.2593768,-0.244483 0.2613283,-0.234934 0.2808289,-0.204373 0.2808299,-0.192914 0.3022819,-0.164262 0.2905807,-0.162353 0.3139832,-0.133702 0.3120328,-0.110782 0.3120337,-0.10123 0.3237341,-0.082134 0.3217845,-0.061124 0.323734,-0.051572 0.3334849,-0.021011 0.323735,-0.00955 z"
       id="path2125"
       style="fill:#000000;fill-opacity:1;fill-rule:nonzero;stroke-width:0;stroke-linecap:butt;stroke-linejoin:miter;stroke-miterlimit:4"
       inkscape:export-filename="/home/andreas/Projects/yakindu/workspaces/damos/org.eclipselabs.mscript.codegen.c.ide.ui/icons/MscriptGen.png"
       inkscape:export-xdpi="90"
       inkscape:export-ydpi="90" />
    <g
       transform="matrix(0.06571685,0,0,0.06571685,1.5888271,5.80962)"
       id="layer2">
      <text
         sodipodi:linespacing="125%"
         x="386.8548"
         y="-108.7233"
         transform="matrix(1.41321,0,0,1.386414,-15.47082,-324.9714)"
         id="text5523"
         xml:space="preserve"
         style="font-size:12px;font-style:normal;font-variant:normal;font-weight:normal;font-stretch:normal;text-align:start;line-height:125%;writing-mode:lr-tb;text-anchor:start;fill:#ffffff;fill-opacity:1;stroke:none;font-family:Courier New"><tspan
           id="tspan5527"
           style="font-size:12px;font-style:normal;font-variant:normal;font-weight:normal;font-stretch:normal;text-align:start;line-height:125%;writing-mode:lr-tb;text-anchor:start;fill:#ffffff;fill-opacity:1;font-family:Courier New">CENTRALE LYON</tspan></text>
    </g>
    <g
       transform="matrix(0.06571685,0,0,0.06571685,1.5888271,5.80962)"
       id="layer1-1"
       style="display:inline" />
  </g>
</svg>
